<?xml version="1.0" standalone="no"?>
<!DOCTYPE svg PUBLIC "-//W3C//DTD SVG 20010904//EN"
 "http://www.w3.org/TR/2001/REC-SVG-20010904/DTD/svg10.dtd">
<svg version="1.0" xmlns="http://www.w3.org/2000/svg"
 width="800.000000pt" height="800.000000pt" viewBox="0 0 800.000000 800.000000"
 preserveAspectRatio="xMidYMid meet">

<g transform="translate(0.000000,800.000000) scale(0.100000,-0.100000)"
fill="#000000" stroke="none">
<path d="M3051 7239 c-14 -5 -31 -19 -39 -30 -9 -13 -20 -18 -32 -14 -23 7
-55 -8 -64 -30 -3 -8 -1 -27 5 -42 l10 -28 -23 23 c-28 26 -46 28 -54 7 -4
-10 -14 -13 -30 -9 -30 8 -43 -19 -24 -50 13 -21 12 -21 -8 -3 -27 25 -56 18
-60 -13 l-3 -25 -92 45 c-87 42 -97 45 -177 45 -74 0 -91 -3 -130 -27 -25 -14
-63 -45 -85 -67 -21 -23 -44 -41 -51 -41 -7 0 -14 -6 -17 -13 -2 -7 -29 -20
-58 -30 -111 -35 -199 -115 -228 -207 -8 -25 -27 -59 -43 -75 -15 -17 -28 -36
-28 -43 0 -7 -9 -12 -20 -12 -27 0 -26 -27 4 -98 13 -31 26 -68 29 -82 4 -25
5 -25 12 -3 7 21 9 21 31 7 13 -9 28 -13 34 -9 5 3 10 2 10 -2 0 -5 16 -25 35
-44 l35 -36 -22 -41 c-19 -34 -20 -42 -9 -56 17 -20 57 -21 94 -2 26 14 28 14
43 -16 8 -16 14 -31 12 -33 -2 -2 -209 -8 -461 -14 -252 -6 -462 -13 -467 -16
-20 -12 -22 -194 -10 -795 6 -349 10 -729 8 -845 l-3 -210 -22 42 c-28 51 -80
95 -150 125 -50 21 -54 25 -49 51 3 15 2 25 -3 22 -5 -3 -19 10 -31 30 -12 19
-39 48 -61 65 -33 27 -38 36 -33 58 4 15 13 34 20 43 16 18 18 45 5 54 -6 3
-31 0 -56 -6 -25 -6 -48 -9 -52 -6 -3 4 2 32 12 62 9 31 14 59 11 63 -12 11
-113 -16 -155 -42 -22 -14 -44 -26 -47 -26 -4 0 -4 20 -2 45 5 42 4 45 -18 45
-98 0 -343 -190 -397 -307 -27 -61 -29 -198 -3 -286 l17 -58 -31 -29 c-28 -26
-41 -48 -21 -36 4 3 11 -24 14 -60 4 -51 15 -86 46 -150 44 -88 131 -194 161
-194 23 0 33 55 13 72 -7 6 -11 13 -8 16 6 7 45 -28 45 -40 0 -5 -4 -6 -10 -3
-6 3 -7 -1 -4 -9 3 -9 10 -16 16 -16 5 0 6 5 2 12 -5 8 -2 9 12 3 10 -5 31 -8
47 -8 15 0 27 -4 27 -9 0 -15 64 -48 95 -48 42 0 102 23 98 37 -2 6 1 14 6 18
6 3 11 11 11 18 0 6 -17 -6 -38 -26 -42 -41 -82 -48 -132 -22 -38 19 -41 33
-13 61 14 14 23 35 23 53 0 16 5 33 10 36 6 4 8 11 4 16 -3 5 -9 7 -14 4 -8
-5 -20 28 -20 59 0 14 5 17 24 12 20 -5 24 -1 30 25 8 42 -25 108 -80 158 -33
30 -46 52 -59 97 -29 104 -29 102 -2 69 33 -39 41 -29 55 66 6 41 14 84 17 95
3 10 -1 6 -9 -11 -19 -39 -20 -15 -2 30 15 36 30 49 20 18 -4 -10 3 -4 15 12
l21 30 0 -42 c0 -51 8 -53 35 -11 22 36 96 71 103 50 2 -7 16 -11 30 -11 26 2
26 2 3 6 -19 4 -21 7 -10 14 10 7 1 9 -28 7 -24 -2 -43 -2 -43 0 0 11 74 31
96 26 22 -6 25 -11 20 -35 -5 -26 0 -33 57 -73 63 -45 80 -53 199 -101 79 -33
123 -72 154 -140 21 -44 23 -67 25 -201 2 -129 -1 -154 -16 -177 -30 -46 -176
-144 -259 -172 -52 -19 -91 -19 -149 -1 -26 8 -45 11 -42 6 7 -11 87 -30 125
-30 l32 0 -27 -32 c-15 -18 -45 -69 -66 -114 -23 -49 -53 -94 -74 -113 -20
-17 -32 -31 -28 -31 21 2 76 62 103 115 34 68 36 68 15 -1 -21 -71 -90 -133
-180 -159 -44 -14 -47 -24 -32 -110 6 -38 5 -37 -22 21 -47 101 -48 104 -9
105 18 1 44 5 58 9 15 5 2 6 -35 3 -33 -3 -63 -10 -66 -16 -12 -18 -48 13 -94
82 -46 68 -46 71 -40 125 l7 56 -30 0 c-16 0 -35 -7 -42 -15 -10 -12 -7 -13
22 -8 l34 5 -4 -59 c-4 -58 -4 -59 48 -121 29 -35 64 -69 79 -76 19 -10 36
-36 59 -93 18 -43 32 -85 32 -93 0 -12 2 -12 9 -2 6 10 13 1 25 -29 29 -71 54
-98 101 -111 24 -7 42 -15 39 -20 -3 -4 10 -8 28 -8 30 0 36 -5 61 -54 32 -62
70 -101 87 -91 8 5 1 19 -23 44 -37 39 -67 81 -67 93 0 5 6 8 14 8 8 0 29 -25
47 -56 l32 -56 12 28 c7 16 20 35 29 43 15 13 19 13 27 0 5 -8 9 -19 9 -26 0
-7 23 -42 50 -78 28 -36 50 -75 50 -86 0 -12 25 -48 55 -82 69 -76 71 -104 8
-122 -23 -7 -71 -29 -106 -49 -109 -61 -164 -139 -202 -291 -44 -171 -31 -236
53 -279 40 -20 50 -31 60 -65 7 -22 22 -47 33 -54 19 -14 19 -16 -28 -114 -45
-93 -54 -133 -32 -133 5 0 9 5 9 10 0 18 30 83 36 78 2 -3 -3 -21 -12 -41 -20
-42 -16 -57 20 -77 24 -12 29 -12 37 0 11 15 10 5 -7 -67 -4 -16 -3 -24 2 -20
4 4 9 13 10 20 1 7 10 26 19 42 15 28 16 28 11 5 -5 -23 0 -28 42 -47 117 -54
181 -64 373 -61 98 2 179 0 179 -4 0 -5 -4 -8 -10 -8 -18 0 -10 -18 10 -23 34
-9 24 -46 -24 -91 -44 -41 -44 -41 -31 -74 8 -17 18 -32 24 -32 5 0 11 -12 13
-27 4 -34 -27 -34 393 0 908 75 2074 116 2480 88 184 -13 851 -68 925 -76 71
-8 365 -25 478 -27 83 -2 105 -5 112 -18 11 -21 8 -52 -7 -67 -6 -7 -14 -32
-18 -55 -4 -24 -12 -52 -18 -63 -5 -11 -6 -17 -2 -13 5 5 14 -1 22 -11 17 -25
112 -45 167 -37 23 4 110 27 195 52 118 35 159 52 174 70 26 33 39 30 35 -8
-2 -23 -11 -36 -28 -45 -14 -7 -19 -13 -12 -13 31 0 52 21 52 53 -1 38 -28
142 -29 110 -1 -13 -7 -23 -15 -23 -10 0 -12 11 -9 43 4 35 1 48 -19 72 -22
26 -26 43 -31 127 -4 75 -2 101 9 117 9 12 11 21 5 21 -16 0 -31 -35 -31 -70
0 -24 -6 -33 -27 -42 -47 -18 -118 -15 -142 6 -12 11 -21 14 -21 7 0 -6 20
-21 43 -32 42 -20 47 -21 95 -6 29 8 52 13 52 10 0 -34 -73 -73 -138 -73 -27
0 -33 -3 -22 -10 25 -16 64 -11 113 14 52 26 49 28 62 -48 3 -21 9 -35 12 -32
12 12 33 -17 33 -45 0 -64 -42 -69 -161 -18 -131 56 -233 65 -293 24 l-36 -24
0 22 c0 58 33 301 51 372 24 96 55 197 76 246 l15 36 71 -22 c83 -26 269 -55
354 -55 60 0 72 -6 108 -48 16 -20 17 -25 5 -33 -13 -8 -13 -10 0 -19 22 -14
33 -12 26 5 -4 12 -2 13 13 3 11 -6 17 -18 14 -25 -3 -7 2 -13 11 -13 9 0 16
5 16 10 0 6 5 10 10 10 6 0 10 -7 10 -15 0 -14 6 -17 28 -14 4 1 6 5 5 9 -4
14 48 21 63 9 19 -15 18 -14 -15 66 l-30 70 32 26 31 26 18 -22 c23 -30 24
-44 1 -16 -17 20 -19 20 -41 3 -19 -15 -21 -21 -12 -51 5 -19 17 -43 27 -53
52 -57 199 -95 301 -77 65 12 166 55 158 68 -3 5 6 16 20 26 48 31 54 64 43
251 -5 93 -13 191 -19 217 -14 69 -13 75 20 82 16 4 32 11 35 15 8 13 -32 88
-55 102 -11 7 -20 22 -20 33 0 11 -7 28 -14 38 -14 18 -14 18 -18 0 -3 -13
-10 -6 -22 24 -10 23 -21 41 -25 40 -4 -1 -26 18 -49 42 -28 30 -47 42 -60 39
-10 -3 -30 1 -43 8 l-24 13 23 1 c39 0 87 -26 120 -66 36 -43 42 -36 12 14
-51 83 -170 95 -234 23 -11 -11 -26 -21 -34 -21 -9 0 -3 9 14 22 16 13 35 28
42 35 7 7 22 13 33 13 10 0 19 4 19 8 0 9 73 0 103 -13 9 -4 17 -3 17 3 0 10
-29 26 -42 24 -5 -1 -8 3 -8 9 0 7 -10 9 -27 5 -19 -4 -23 -4 -14 3 7 5 11 13
7 19 -11 18 -118 35 -186 29 -70 -5 -39 5 55 19 28 4 42 9 32 12 -17 4 -17 6
5 30 18 21 19 23 2 9 -25 -21 -34 -22 -34 -2 0 11 -9 8 -37 -11 -51 -34 -78
-39 -124 -21 -38 15 -49 11 -28 -10 18 -18 -76 -43 -164 -43 -90 0 -126 -16
-171 -75 -33 -43 -49 -44 -87 -6 -24 25 -29 37 -29 80 0 54 3 57 46 41 15 -6
29 -9 31 -7 2 3 -33 17 -77 33 -103 36 -159 87 -205 189 -43 94 -59 177 -53
273 4 61 3 70 -5 45 -12 -41 -20 -41 -41 0 -11 23 -16 27 -16 13 0 -11 10 -30
22 -43 16 -17 22 -34 20 -61 -4 -51 30 -177 67 -251 17 -33 31 -63 31 -66 0
-3 -62 -5 -138 -5 l-139 0 -32 45 c-34 47 -75 132 -85 177 -5 23 -2 30 23 42
39 21 55 67 37 110 -11 26 -25 36 -87 60 -53 21 -83 40 -108 68 -30 35 -79 69
-98 68 -4 -1 9 -10 29 -20 36 -20 97 -89 67 -78 -92 34 -120 39 -154 28 -65
-22 -66 11 -2 51 l29 17 -39 6 c-21 3 -56 3 -78 1 -22 -3 -87 -6 -145 -8 -103
-3 -140 -11 -140 -28 0 -26 146 -133 211 -154 44 -15 53 -23 68 -59 24 -56 63
-100 106 -120 l36 -17 -25 -30 c-38 -45 -39 -62 -8 -127 l29 -60 -311 -6
c-171 -4 -888 -8 -1593 -9 l-1281 -2 -4 -38 -4 -37 36 6 c19 4 44 14 55 24 40
35 56 37 315 28 149 -5 784 -5 1525 1 l1270 10 22 -27 c13 -15 23 -30 23 -33
0 -28 -2978 -57 -2995 -29 -3 5 -16 9 -28 9 -17 -1 -18 -2 -4 -6 27 -7 20 -21
-23 -43 -50 -25 -54 -25 -68 5 -11 23 -9 25 21 34 l32 10 -41 -2 -42 -1 20
-55 c14 -37 35 -68 62 -93 33 -30 39 -39 28 -50 -10 -10 -21 -8 -57 12 l-44
24 -46 -22 c-25 -12 -57 -22 -71 -22 -38 0 -61 -15 -146 -96 -43 -41 -99 -87
-125 -104 -26 -16 -43 -30 -37 -30 5 0 32 14 58 31 27 16 51 27 54 24 13 -13
14 -410 2 -515 -16 -136 -20 -144 -73 -165 -50 -19 -157 -26 -157 -10 0 22
-52 121 -71 135 -11 9 -21 24 -23 33 -1 9 -24 43 -52 74 -27 32 -48 61 -46 66
1 5 -2 6 -8 2 -12 -7 -12 -10 -1 90 5 44 11 116 12 160 2 68 7 87 30 126 16
25 35 70 43 100 9 36 19 53 28 51 71 -18 115 -13 218 27 181 71 185 74 230
160 41 78 41 79 15 144 -6 14 -2 17 20 17 15 0 24 4 20 10 -11 18 -47 11 -52
-10 -5 -19 -14 -20 -137 -20 -72 0 -147 3 -167 6 l-37 6 29 42 c37 51 89 198
89 249 0 26 4 37 15 37 8 0 22 12 32 28 9 15 18 29 19 31 6 8 71 -40 111 -81
42 -43 93 -132 93 -162 0 -27 16 -18 58 30 47 53 70 113 78 204 6 77 -12 115
-73 153 -127 79 -254 76 -309 -8 -9 -14 -22 -24 -28 -22 -6 2 -19 0 -28 -4
-13 -7 -24 2 -53 41 -80 108 -288 230 -394 230 -16 0 -32 3 -34 8 -3 4 -10
304 -16 667 -7 363 -16 862 -21 1108 -11 499 -11 498 51 511 146 29 976 64
2024 86 1084 22 1652 21 2170 -4 l80 -4 -75 8 c-83 8 -111 17 -169 55 -34 23
-46 26 -86 20 -39 -6 -49 -4 -70 15 -18 17 -37 22 -82 23 -70 2 -117 28 -159
89 -25 36 -29 51 -31 120 -2 71 0 78 17 78 13 0 30 21 57 72 21 40 43 73 48
75 6 2 20 -3 30 -11 20 -15 20 -15 0 -10 -14 3 -28 -3 -40 -17 l-20 -22 27 17
c26 17 27 16 61 -13 43 -38 56 -38 82 -1 47 67 97 130 105 130 4 0 9 -38 12
-84 3 -56 10 -93 21 -110 16 -24 16 -26 -3 -36 -16 -8 -24 -6 -41 11 -19 19
-21 29 -16 88 3 36 8 77 11 91 5 21 4 21 -8 -5 -23 -46 -21 -167 3 -196 16
-20 22 -22 42 -12 19 8 30 7 51 -5 23 -13 34 -14 81 -2 53 12 59 11 124 -15
37 -15 74 -31 80 -37 23 -19 41 0 50 52 4 28 13 52 18 53 6 1 28 -26 51 -60
40 -62 41 -64 32 -120 -14 -89 -34 -123 -119 -198 l-34 -30 35 -2 c19 -1 127
-7 240 -14 268 -15 338 -26 175 -28 -66 0 -336 -3 -600 -6 -589 -6 -1518 -21
-2205 -36 -283 -6 -756 -12 -1050 -13 -326 0 -509 -4 -470 -9 69 -9 931 -2
1705 13 1812 35 2765 39 2800 10 16 -13 17 -69 14 -999 -4 -870 -2 -986 11
-989 13 -2 15 87 15 755 0 755 10 1193 26 1123 11 -46 36 -279 49 -450 17
-235 29 -512 41 -970 6 -245 12 -446 14 -448 1 -1 30 -7 63 -12 33 -6 93 -21
132 -34 l72 -25 -7 182 c-4 103 -4 178 1 174 5 -5 12 -36 15 -70 l6 -62 1 60
c2 71 -13 100 -58 108 -17 4 -45 22 -63 42 -18 19 -49 40 -70 48 -49 17 -48
31 3 35 22 2 40 6 40 9 0 3 -20 28 -45 54 -45 48 -51 62 -39 93 8 20 27 20 81
0 24 -9 46 -14 49 -12 3 3 -4 21 -15 39 -45 74 -13 66 88 -21 44 -39 82 -70
84 -70 2 0 2 13 -1 29 -3 21 2 33 19 45 35 24 40 20 23 -20 -26 -63 -10 -143
51 -254 15 -28 25 -62 25 -90 1 -40 3 -42 12 -22 10 21 5 53 -18 110 -4 8 4
12 23 13 28 1 28 1 3 8 -23 6 -23 8 -7 17 25 14 46 78 47 142 0 32 4 52 11 52
16 0 2 -202 -14 -212 -9 -6 -9 -8 0 -8 6 0 14 -8 16 -17 4 -14 5 -12 6 5 0 12
7 22 15 22 8 0 18 5 22 11 4 8 -1 9 -16 4 -23 -7 -23 -7 -17 55 4 35 7 78 7
96 l0 33 43 -24 c70 -40 128 -56 200 -57 57 0 78 5 134 32 96 47 181 136 232
242 59 124 75 221 76 463 0 194 -1 202 -28 280 -84 238 -224 345 -454 345
-116 0 -278 -35 -356 -77 -46 -26 -137 -114 -137 -134 0 -5 -4 -9 -9 -9 -6 0
-11 125 -13 298 -3 304 -7 332 -43 346 -9 3 -111 11 -226 16 l-209 11 -36 -36
c-28 -28 -42 -35 -59 -31 -14 4 -37 -1 -55 -12 -30 -16 -32 -16 -45 2 -14 19
-15 19 -35 1 -19 -17 -22 -17 -36 -3 -21 21 -9 56 22 64 15 4 24 13 24 25 0
11 5 16 14 13 8 -3 16 3 19 16 4 16 2 19 -7 11 -11 -10 -26 -7 -88 15 -10 4
-18 14 -18 23 0 23 33 111 41 111 5 0 15 -10 23 -22 9 -12 19 -18 23 -14 13
13 8 209 -5 234 -14 25 -3 29 28 10 10 -7 22 -9 25 -6 13 13 -47 117 -89 156
-32 29 -41 43 -33 51 17 17 -81 104 -140 125 -26 10 -55 20 -63 23 -8 4 -18 5
-22 5 -15 -3 -8 16 8 22 25 10 41 7 24 -5 -11 -8 -9 -9 10 -3 35 9 38 14 17
29 -58 42 -274 70 -326 41 -21 -11 -30 -11 -57 0 -50 21 -106 17 -145 -9 -19
-13 -33 -31 -33 -40 1 -12 -11 -20 -40 -27 -140 -36 -192 -78 -209 -167 -5
-26 -3 -33 10 -33 10 0 2 -15 -26 -46 -57 -61 -74 -104 -66 -165 4 -27 11 -49
16 -49 5 0 8 5 7 11 -2 6 2 13 9 16 7 2 10 -3 8 -14 -2 -10 -4 -26 -4 -35 -1
-9 -18 -25 -38 -35 -52 -25 -56 -57 -11 -77 18 -8 41 -17 51 -20 14 -4 17 -16
15 -69 -1 -35 2 -69 6 -75 5 -9 -14 -12 -74 -12 -76 0 -84 2 -102 25 -11 14
-25 25 -31 23 -7 -1 -29 7 -50 17 -31 16 -42 17 -57 7 -15 -9 -25 -9 -45 0
-21 9 -29 9 -41 -4 -9 -9 -14 -24 -11 -34 4 -17 6 -17 12 4 8 25 37 29 55 7
11 -13 15 -13 33 0 30 21 58 19 64 -6 5 -16 11 -19 33 -14 22 5 29 1 39 -21
22 -48 25 -108 7 -123 -14 -12 -20 -11 -41 9 l-24 23 -7 -27 c-8 -33 -21 -33
-57 2 -20 18 -31 23 -34 15 -3 -7 -11 -13 -18 -13 -15 0 -71 61 -79 87 -6 20
82 19 -1265 2 l-304 -4 -8 23 c-5 12 -14 22 -21 21 -10 0 -10 -2 0 -6 13 -5
17 -94 5 -106 -3 -4 -13 -1 -21 5 -11 10 -16 9 -23 -5 -13 -22 -39 -22 -39 0
0 15 -1 15 -18 0 -25 -22 -42 -21 -42 2 0 14 -5 18 -20 14 -15 -4 -20 0 -20
16 0 29 27 81 42 81 6 0 8 3 4 7 -4 5 -20 -6 -34 -24 -26 -30 -31 -32 -108
-35 l-81 -3 29 29 c42 42 70 102 75 166 6 68 -7 115 -47 165 l-30 37 33 22
c24 16 32 29 32 51 0 27 -4 30 -34 33 l-33 3 7 44 c9 63 -18 151 -66 214 -39
52 -49 84 -27 97 15 9 36 -21 49 -71 14 -52 46 -95 70 -95 10 0 19 5 19 10 0
6 -6 10 -14 10 -20 0 -34 21 -50 74 l-14 46 29 -21 c16 -11 35 -30 44 -42 8
-12 15 -17 15 -12 0 6 -18 33 -41 60 -55 67 -66 88 -43 83 10 -2 33 -28 51
-58 35 -58 66 -72 71 -33 2 15 -11 37 -39 68 -23 25 -38 45 -34 45 4 0 22 -17
40 -37 22 -26 36 -35 49 -30 13 5 15 11 7 26 -9 16 -7 20 14 25 13 3 29 15 35
26 14 25 75 27 102 3 10 -9 18 -11 18 -5 0 20 -49 44 -80 40 -16 -3 -30 -1
-30 3 0 12 29 19 76 19 47 0 59 14 20 24 -28 7 -84 -2 -92 -15 -3 -5 -11 -9
-17 -9 -25 1 26 29 64 35 21 4 39 11 39 16 0 12 -38 11 -69 -2z m-55 -106 c-5
-5 -56 22 -56 30 0 5 13 0 30 -9 16 -10 28 -19 26 -21z m-378 -71 c89 -36 183
-127 200 -192 13 -50 16 -77 14 -134 l-2 -40 -32 31 c-44 41 -70 53 -121 57
-23 2 -72 12 -109 21 -65 17 -118 15 -118 -5 0 -6 28 -10 63 -10 100 -1 186
-51 222 -130 l18 -41 -54 -55 c-68 -70 -139 -116 -209 -139 -30 -10 -59 -21
-64 -26 -17 -15 108 23 158 48 59 30 166 110 166 124 0 5 7 9 15 9 8 0 15 9
15 19 0 11 5 23 10 26 16 10 12 28 -5 21 -9 -3 -20 4 -29 22 -8 15 -31 45 -52
66 l-39 40 55 -30 c51 -27 58 -36 95 -111 22 -45 50 -92 62 -105 37 -39 46
-79 33 -141 -26 -125 -124 -227 -219 -227 -38 0 -52 -5 -72 -26 -19 -20 -30
-24 -54 -20 -23 5 -39 0 -65 -19 -18 -14 -49 -28 -67 -31 -18 -3 -36 -10 -39
-15 -20 -33 -162 25 -234 95 -41 39 -80 125 -80 175 0 22 7 31 36 44 84 40
155 124 209 244 47 105 22 91 -32 -18 -50 -103 -98 -164 -157 -200 -40 -24
-44 -24 -48 4 -3 21 -5 20 -20 -9 -24 -43 -63 -50 -94 -17 -45 48 -66 109 -72
203 -11 193 58 296 236 353 76 25 82 25 112 10 87 -43 130 -115 130 -218 0
-36 3 -46 10 -35 13 20 13 85 0 132 -12 41 -86 120 -131 138 -16 7 -29 16 -29
20 0 31 99 105 163 121 52 13 154 0 225 -29z m314 -37 c11 -14 10 -37 -1 -31
-5 3 -19 23 -31 43 l-22 38 23 -20 c13 -11 27 -24 31 -30z m-25 -352 c4 -11
-3 -24 -23 -40 -16 -12 -32 -23 -36 -23 -10 0 -11 64 -1 73 13 13 54 7 60 -10z
m-1034 -88 l7 -60 -20 35 c-22 41 -25 61 -8 78 15 15 14 17 21 -53z m4394 -27
c-3 -7 -5 -2 -5 12 0 14 2 19 5 13 2 -7 2 -19 0 -25z m-4441 -23 c9 -39 0 -30
-15 15 -6 19 -7 30 -2 25 5 -6 13 -23 17 -40z m67 -83 c8 -41 -17 -17 -30 29
l-13 44 19 -25 c11 -13 22 -35 24 -48z m3552 19 c-3 -3 -18 8 -33 23 l-27 29
32 -23 c18 -13 30 -26 28 -29z m-264 -33 c6 -25 5 -28 -16 -28 -23 0 -55 23
-55 39 0 15 15 22 39 19 17 -2 27 -11 32 -30z m569 -48 c-37 -29 -69 -35 -87
-17 -15 15 -15 16 3 11 11 -3 35 2 54 10 48 21 60 19 30 -4z m-3682 -87 c3
-25 -3 -35 -26 -52 -36 -25 -70 -27 -79 -5 -8 21 30 70 51 66 9 -2 16 1 15 5
-3 18 2 24 19 21 11 -2 18 -14 20 -35z m4088 -40 c-8 -15 -15 -25 -16 -21 0
12 23 58 27 54 3 -2 -2 -17 -11 -33z m77 9 c18 -16 23 -42 8 -42 -4 0 -22 5
-40 11 -22 8 -30 16 -27 26 3 8 6 19 6 24 0 11 30 0 53 -19z m-3988 -202 c3
-6 -1 -7 -9 -4 -18 7 -21 14 -7 14 6 0 13 -4 16 -10z m-696 -1225 c6 -385 11
-819 11 -964 l0 -264 -45 6 c-26 2 -48 7 -51 10 -3 3 -8 221 -11 484 -8 661
15 1259 59 1553 l13 85 7 -105 c3 -58 11 -420 17 -805z m5461 722 c0 -7 -7
-22 -15 -33 -13 -17 -14 -16 -4 14 11 33 19 41 19 19z m319 -138 c44 -18 51
-26 72 -80 15 -37 49 -89 92 -139 58 -68 66 -82 57 -99 -15 -30 -12 -46 15
-76 16 -17 33 -25 44 -22 26 7 32 -42 20 -156 -10 -89 -30 -156 -46 -158 -4 0
-23 -2 -42 -4 -26 -2 -39 3 -56 21 l-22 23 -54 -20 c-92 -35 -160 -25 -301 44
-65 32 -119 61 -121 65 -2 4 -7 20 -11 35 -6 26 -5 27 14 17 13 -7 20 -7 20 0
0 5 9 10 20 10 27 0 25 13 -2 25 -25 11 -38 69 -19 88 7 7 8 -1 4 -25 -4 -31
-2 -38 20 -53 15 -9 31 -14 36 -10 6 3 25 -10 42 -30 32 -36 69 -62 69 -48 0
4 -16 18 -35 30 -19 13 -44 42 -56 65 -12 24 -37 58 -55 76 -38 37 -47 87 -16
95 11 3 7 7 -15 12 l-33 8 0 128 0 129 43 21 c103 54 231 65 316 28z m-342
-354 c6 -73 5 -87 -5 -97 -9 -9 -12 4 -12 55 0 64 13 95 17 42z m69 -112 c18
-24 17 -33 -1 -33 -8 0 -15 7 -15 15 0 8 -4 15 -10 15 -5 0 -10 5 -10 10 0 16
22 12 36 -7z m-6306 -72 c0 -5 -17 -11 -38 -15 -22 -3 -55 -17 -76 -31 -42
-29 -65 -33 -45 -9 31 37 159 82 159 55z m6303 -115 c26 -10 47 -22 47 -26 0
-10 -64 -30 -97 -30 -21 0 -23 5 -23 46 0 36 3 44 13 37 6 -5 33 -17 60 -27z
m-6208 -6 c-3 -5 -20 -10 -36 -10 -18 0 -28 4 -24 10 3 6 20 10 36 10 18 0 28
-4 24 -10z m-422 -340 c4 -17 3 -19 -9 -9 -8 6 -14 18 -14 26 0 20 16 8 23
-17z m757 -565 c0 -72 -1 -75 -25 -81 -14 -3 -60 -2 -102 2 l-77 9 60 37 c33
20 75 52 94 72 19 19 38 35 43 35 4 1 7 -33 7 -74z m564 -286 c59 -22 191
-104 216 -134 8 -9 -15 3 -50 28 -67 46 -149 90 -210 113 -19 7 -30 13 -23 13
7 1 37 -8 67 -20z m3711 -139 c-3 -5 -11 -10 -16 -10 -6 0 -7 5 -4 10 3 6 11
10 16 10 6 0 7 -4 4 -10z m85 0 c0 -14 -37 -31 -54 -24 -32 12 -13 30 37 33 9
0 17 -3 17 -9z m-157 -11 c38 -10 42 -29 6 -29 -17 0 -18 -3 -7 -21 11 -17 10
-22 -6 -34 -16 -12 -17 -17 -6 -30 37 -45 -34 -21 -97 33 -26 23 -30 32 -26
60 5 31 7 32 52 32 25 0 63 -5 84 -11z m92 -30 c10 -15 4 -18 -27 -12 -15 3
-25 9 -22 14 7 12 41 11 49 -2z m172 -103 c231 -77 243 -81 243 -97 0 -16 -41
-10 -145 20 -252 72 -387 121 -335 121 7 0 10 7 6 15 -3 8 -2 15 3 15 4 0 107
-33 228 -74z m65 33 c177 -58 194 -83 23 -34 -141 41 -198 62 -184 68 25 10
36 7 161 -34z m-3980 -103 c4 -6 8 -14 8 -17 0 -12 -44 -19 -54 -9 -6 6 -15
10 -20 10 -6 0 -4 -5 4 -10 17 -11 21 -68 6 -89 -8 -11 -8 -13 2 -7 8 5 12 -1
12 -23 0 -52 51 -81 81 -44 13 15 12 15 -9 2 -30 -19 -56 -2 -60 38 -3 29 -2
30 37 30 36 0 41 -2 41 -23 0 -16 5 -22 14 -18 17 7 125 -83 149 -125 10 -17
13 -31 7 -31 -6 0 -8 -10 -4 -26 7 -29 -23 -69 -60 -78 -15 -4 -33 -25 -51
-62 -33 -64 -76 -100 -162 -134 -84 -33 -180 -80 -164 -80 8 0 39 12 68 26 58
27 79 26 90 -3 3 -10 23 -55 45 -101 47 -100 62 -196 52 -331 l-7 -93 -36 -16
c-55 -23 -267 -28 -360 -8 -72 15 -161 57 -161 76 0 6 18 10 40 10 22 0 56 7
75 15 35 14 175 142 175 159 0 4 -8 -2 -18 -14 -20 -25 -88 -35 -129 -19 -20
8 -28 5 -46 -17 -65 -79 -94 -104 -124 -110 -30 -6 -34 -4 -48 27 -8 19 -14
28 -15 21 0 -7 5 -22 10 -33 6 -11 7 -19 1 -19 -12 0 -31 56 -30 89 l1 26 9
-25 c6 -19 7 -14 4 20 -3 25 -2 39 3 33 5 -8 12 2 19 30 17 63 87 209 118 246
27 31 28 31 48 14 11 -10 26 -33 34 -51 11 -28 11 -36 -2 -61 -18 -36 -65 -71
-95 -71 -12 0 -31 5 -43 12 -20 10 -21 10 -8 -5 7 -10 20 -17 28 -17 8 0 0
-14 -21 -34 -20 -18 -36 -40 -36 -47 0 -8 10 -1 21 14 12 15 47 45 79 67 61
41 110 93 110 115 0 21 19 28 26 10 4 -9 -2 -25 -12 -37 -18 -20 -18 -21 -1
-15 10 4 44 10 74 14 l56 6 -6 -39 -6 -39 11 34 c10 29 9 35 -9 50 -28 22 -48
82 -31 93 10 6 10 8 0 8 -8 0 -37 20 -65 44 -29 24 -75 55 -104 70 -55 27
-123 81 -123 98 0 13 -21 32 -42 41 -10 3 -18 16 -18 29 1 23 1 23 15 -2 21
-37 18 -15 -5 29 -10 21 -25 41 -32 44 -7 2 -22 20 -32 38 -19 33 -18 33 17
-6 32 -36 36 -38 42 -20 41 119 71 161 152 211 21 13 34 24 30 24 -14 0 -92
-42 -114 -63 -33 -30 -28 -8 7 35 35 43 96 74 163 83 51 8 65 -7 24 -26 -24
-11 -82 -121 -74 -141 3 -7 10 1 16 17 23 61 44 105 50 105 4 0 8 -32 10 -72
1 -40 5 -76 8 -81 18 -30 128 -38 188 -12 54 22 57 9 4 -15 -57 -26 -142 -26
-192 -1 -37 19 -61 11 -38 -12 13 -13 145 -22 194 -13 40 8 104 46 91 54 -10
7 -67 99 -93 150 -11 21 -10 22 25 22 29 0 35 -3 30 -16 -5 -14 -4 -15 8 -5 8
7 19 10 24 7 6 -3 15 1 21 8 8 10 9 16 1 21 -16 10 -12 33 10 55 17 17 24 19
43 9 12 -7 25 -17 29 -23z m88 9 c10 -12 9 -20 -4 -39 -15 -23 -14 -25 6 -28
26 -4 43 -30 35 -52 -7 -17 -52 -22 -62 -6 -3 6 -23 10 -44 10 -46 0 -71 23
-54 48 11 18 43 21 78 8 17 -7 16 -5 -4 12 -20 16 -22 22 -12 40 14 25 43 29
61 7z m3703 -15 c20 -11 54 -22 75 -25 21 -3 71 -16 112 -30 40 -14 83 -25 94
-25 18 0 16 -4 -13 -34 -18 -19 -47 -42 -65 -51 -32 -17 -34 -17 -62 3 -16 11
-47 25 -69 31 -47 12 -96 59 -119 114 -18 44 -9 47 47 17z m-4503 -189 c0 -5
3 -18 6 -28 5 -16 4 -16 -10 1 -18 23 -20 36 -6 36 6 0 10 -4 10 -9z m5210
-171 c-37 -12 -240 -12 -240 0 0 6 50 10 133 9 81 -1 122 -4 107 -9z m73 -39
l28 -18 -53 -6 c-93 -12 -167 -8 -206 10 l-37 18 110 5 c61 4 115 7 120 8 6 1
23 -6 38 -17z m-3953 -28 c0 -55 -3 -56 -186 -49 -233 9 -306 16 -301 29 2 6
9 13 17 15 7 3 10 0 6 -7 -12 -19 8 -12 44 14 33 25 37 25 227 25 l193 0 0
-27z m145 7 c-10 -11 -31 -20 -47 -20 -21 0 -28 5 -28 20 0 17 7 20 47 20 45
0 46 0 28 -20z m4414 -74 c-2 -2 -15 -9 -29 -15 -24 -11 -24 -11 -6 3 16 13
49 24 35 12z m-61 -33 c-1 -5 9 -26 23 -48 30 -46 79 -147 79 -161 -1 -5 -21
31 -46 81 -25 49 -51 97 -59 106 -8 8 -12 19 -8 22 8 9 14 9 11 0z m-4188 -17
c0 -17 -85 -60 -100 -51 -20 12 -10 43 18 53 41 16 82 14 82 -2z m4475 4 c-3
-5 -12 -10 -18 -10 -7 0 -6 4 3 10 19 12 23 12 15 0z m-70 -42 c-11 -6 -26
-18 -32 -26 -7 -9 -13 -11 -13 -4 0 12 39 42 55 42 5 0 1 -6 -10 -12z m-424
-82 c-25 -26 -26 -36 -6 -36 8 0 21 -12 29 -28 8 -15 23 -36 35 -46 26 -24 61
-116 61 -161 0 -50 -45 -84 -97 -73 -11 3 0 10 32 21 57 19 24 16 -48 -4 -44
-12 -53 -12 -120 11 -71 25 -72 26 -72 60 0 19 -3 40 -7 46 -4 6 -6 42 -5 80
3 81 8 83 106 61 34 -8 60 -12 59 -8 -30 58 -31 60 -17 77 15 19 50 34 62 27
5 -3 -1 -15 -12 -27z m379 21 c0 -2 -10 -12 -21 -23 -22 -19 -22 -19 -10 4 10
18 31 31 31 19z m-5212 -42 c41 -17 43 -19 36 -49 -4 -17 -18 -56 -32 -86
l-26 -55 -6 70 c-4 39 -14 87 -23 109 -12 27 -13 37 -4 33 6 -3 31 -13 55 -22z
m3222 6 l274 -6 9 -40 c6 -22 10 -161 11 -310 l1 -270 -34 -72 c-18 -40 -41
-79 -51 -88 -26 -24 -450 -62 -830 -75 -626 -20 -1168 -29 -1462 -23 -343 7
-326 2 -352 108 -32 132 -29 350 10 647 l17 127 116 4 c217 5 2015 4 2291 -2z
m1630 -1 c0 -5 -7 -10 -16 -10 -8 0 -12 5 -9 10 3 6 10 10 16 10 5 0 9 -4 9
-10z m-4672 -17 c-10 -2 -28 -2 -40 0 -13 2 -5 4 17 4 22 1 32 -1 23 -4z
m4532 -3 c12 -8 11 -10 -7 -10 -13 0 -23 5 -23 10 0 13 11 13 30 0z m-1160
-85 c14 -67 15 -283 2 -330 -6 -21 -11 18 -15 135 -4 91 -10 192 -13 225 -7
74 8 57 26 -30z m617 56 c38 -17 100 -37 139 -47 38 -9 72 -20 76 -23 4 -4 1
-19 -7 -35 -8 -16 -15 -34 -15 -42 0 -7 -9 -29 -21 -48 -17 -29 -19 -41 -11
-65 7 -20 6 -58 -5 -132 -12 -79 -13 -111 -4 -139 6 -21 11 -46 11 -58 0 -11
6 -22 14 -25 12 -5 11 -15 -6 -59 -12 -29 -31 -89 -43 -133 -13 -44 -27 -79
-31 -78 -5 1 -38 14 -74 29 -36 15 -112 36 -170 46 -58 11 -112 23 -120 27 -9
5 -18 32 -23 67 -9 63 -1 629 9 702 l7 42 102 0 c92 0 111 -3 172 -29z m1383
-48 c0 -19 -17 -24 -24 -7 -4 10 -2 13 6 8 8 -5 9 -2 4 12 -15 36 -16 59 -2
29 9 -16 15 -35 16 -42z m-390 26 c-7 -11 -14 -18 -17 -15 -3 3 0 12 7 21 18
21 23 19 10 -6z m-537 -64 c-3 -28 -1 -50 6 -59 13 -16 4 -49 -13 -43 -20 7
-30 65 -17 107 16 54 32 51 24 -5z m967 14 c0 -5 -4 -9 -10 -9 -5 0 -10 7 -10
16 0 8 5 12 10 9 6 -3 10 -10 10 -16z m-42 -31 c-25 -38 -112 -79 -185 -88
-148 -19 -173 -20 -173 -13 0 5 49 14 109 20 118 13 194 38 232 79 28 30 36
31 17 2z m68 -16 c21 -18 58 -72 52 -76 -2 -2 -15 -6 -30 -10 -25 -6 -28 -3
-38 35 -6 22 -14 47 -17 55 -7 19 7 17 33 -4z m-5155 -228 c8 -94 8 -152 1
-210 -10 -70 -38 -162 -46 -153 -2 2 -1 139 2 304 5 274 7 295 19 245 7 -30
18 -114 24 -186z m5065 187 c-15 -16 -55 -41 -89 -57 -50 -22 -76 -27 -143
-28 l-82 0 5 -56 c3 -30 4 -53 1 -50 -3 3 -8 30 -12 61 l-6 56 99 6 c105 5
161 24 216 71 40 34 45 33 11 -3z m38 -31 c4 -25 3 -31 -4 -20 -5 8 -10 26
-10 39 0 32 6 24 14 -19z m-311 23 c-7 -2 -21 -2 -30 0 -10 3 -4 5 12 5 17 0
24 -2 18 -5z m295 -107 c28 -52 28 -54 7 -40 -13 8 -26 26 -29 38 -3 13 -13
27 -22 30 -19 7 -54 -10 -54 -28 0 -14 41 -36 69 -36 22 0 51 -40 51 -69 0
-12 -12 -27 -27 -35 -32 -17 -26 -20 11 -6 15 5 26 6 26 0 0 -15 20 -63 25
-58 3 2 1 19 -4 36 -6 19 -6 34 -1 37 13 8 23 -40 16 -72 -5 -16 -3 -29 5 -33
18 -12 1 -164 -22 -194 -33 -42 -149 -54 -149 -15 0 6 -9 0 -21 -14 -48 -62
-155 -52 -184 17 -23 54 -19 100 11 135 14 17 21 31 16 31 -6 0 -20 -12 -31
-26 -23 -29 -27 -78 -11 -134 9 -32 8 -33 -5 -16 -8 11 -15 24 -15 29 0 4 -4
6 -9 2 -5 -3 -13 0 -17 6 -4 8 -3 9 4 5 8 -5 12 4 12 30 0 20 9 52 21 70 31
51 82 74 72 33 -6 -20 -5 -21 25 -5 24 12 37 14 58 6 22 -9 25 -8 17 2 -7 8
-8 30 -4 53 5 30 12 41 31 46 l25 7 -24 1 c-22 1 -23 4 -17 44 4 23 13 51 20
62 11 17 23 59 28 103 1 7 15 12 34 12 29 0 36 -6 62 -54z m52 -8 c0 -51 -5
-47 -13 10 -3 24 -1 40 4 36 5 -3 9 -24 9 -46z m-171 10 c-5 -17 -13 -36 -19
-42 -10 -10 2 43 15 64 12 19 14 10 4 -22z m-5829 -8 c-8 -5 -24 -9 -35 -9
-16 1 -16 2 5 9 35 11 48 11 30 0z m-498 -15 c33 -13 35 -18 41 -70 6 -63 3
-81 -20 -89 -42 -17 -100 68 -87 128 11 53 13 54 66 31z m6285 -90 c-7 -27
-18 -50 -25 -51 -7 -1 -8 0 -2 3 5 2 10 10 10 16 0 19 21 89 25 85 2 -2 -2
-26 -8 -53z m213 12 c0 -5 -4 -5 -10 -2 -5 3 -10 14 -10 23 0 15 2 15 10 2 5
-8 10 -19 10 -23z m-373 -34 c-3 -10 -5 -4 -5 12 0 17 2 24 5 18 2 -7 2 -21 0
-30z m-5842 -43 l20 -25 -21 18 c-11 9 -23 17 -27 17 -3 0 -18 -20 -33 -45
-27 -46 -44 -63 -23 -22 13 26 60 90 63 85 0 -2 10 -14 21 -28z m5930 20 c25
-11 -1 -11 -35 0 -20 6 -21 8 -5 8 11 0 29 -3 40 -8z m-5625 -75 c85 0 176 3
202 7 39 6 46 5 42 -7 -3 -8 -12 -11 -21 -8 -11 4 -14 2 -9 -5 4 -7 -5 -9 -31
-7 -26 3 -30 2 -15 -3 13 -4 -39 -7 -116 -7 -81 0 -138 4 -134 9 3 5 -13 7
-36 3 -26 -3 -40 -1 -36 5 3 5 0 8 -7 7 -17 -3 -76 22 -104 44 -11 9 9 4 45
-11 61 -25 75 -26 220 -27z m5617 42 c3 -3 0 -14 -7 -24 -10 -16 -11 -16 -6 0
3 10 0 17 -7 17 -7 0 -22 3 -34 6 -20 6 -23 3 -23 -23 0 -26 -47 -106 -73
-124 -5 -4 -1 -18 8 -33 10 -14 15 -26 11 -26 -3 0 -13 11 -22 24 -15 24 -14
27 25 76 31 39 41 61 41 87 l0 36 41 -6 c22 -3 43 -8 46 -10z m-5808 -72 c30
-15 69 -29 85 -30 55 -6 233 -6 263 0 28 5 28 5 3 -6 -29 -13 -188 -17 -243
-6 -34 7 -37 6 -34 -14 2 -12 -2 -56 -10 -98 -9 -50 -11 -106 -7 -163 10 -136
-7 -165 -79 -134 -42 17 -57 41 -58 93 -1 37 -1 37 -9 10 -5 -16 -14 -35 -21
-43 -30 -36 -109 5 -109 57 0 17 -4 28 -9 25 -5 -4 -7 3 -4 15 5 16 8 18 15 7
7 -9 8 -8 4 5 -3 10 -1 28 6 40 7 12 13 29 15 37 4 25 64 153 85 183 15 21 27
27 47 25 24 -3 26 -6 25 -51 l0 -49 14 29 c9 15 22 33 30 39 11 8 6 14 -27 28
-22 11 -48 28 -58 40 -18 21 -18 21 2 5 11 -9 44 -29 74 -44z m5834 40 c-3 -9
-8 -14 -10 -11 -3 3 -2 9 2 15 9 16 15 13 8 -4z m22 -35 c-28 -12 -45 -12 -45
0 0 6 15 10 33 9 27 0 29 -2 12 -9z m-5392 -15 c0 -6 11 -18 23 -28 30 -23 77
-107 109 -192 25 -66 25 -68 8 -104 -11 -22 -29 -40 -47 -46 -24 -8 -31 -6
-51 17 -14 16 -28 52 -34 85 -6 32 -23 94 -37 138 -14 45 -22 88 -18 98 4 11
1 17 -7 17 -7 0 -9 3 -6 7 13 12 45 -28 67 -83 12 -30 26 -54 31 -54 10 0 -1
30 -36 99 -14 28 -25 53 -25 57 0 10 21 -1 23 -11z m-683 -15 c-6 -11 -13 -20
-16 -20 -2 0 0 9 6 20 6 11 13 20 16 20 2 0 0 -9 -6 -20z m483 13 c-24 -2 -62
-2 -85 0 -24 2 -5 4 42 4 47 0 66 -2 43 -4z m-517 -71 c-18 -16 -18 -16 -6 6
6 13 14 21 18 18 3 -4 -2 -14 -12 -24z m-37 -76 c-11 -26 -23 -46 -25 -43 -3
3 5 25 17 51 29 59 35 53 8 -8z m92 7 c-11 -21 -20 -34 -21 -30 0 14 32 78 37
73 2 -2 -5 -21 -16 -43z m5722 -25 c4 -10 8 -10 15 0 7 11 10 9 15 -7 3 -12 1
-19 -4 -15 -5 3 -9 -4 -9 -15 0 -23 15 -28 23 -8 4 9 6 9 6 0 1 -6 -4 -15 -9
-18 -8 -5 -7 -12 2 -23 12 -14 8 -15 -31 -8 -47 7 -95 36 -111 66 -15 28 -14
29 38 33 26 2 50 4 54 5 3 1 9 -4 11 -10z m157 -23 c13 -14 19 -25 13 -25 -6
0 -18 11 -27 25 -9 14 -15 25 -13 25 2 0 14 -11 27 -25z m-5916 -44 c-9 -23
-18 -40 -20 -38 -2 2 4 22 13 45 9 23 18 40 20 38 2 -2 -4 -22 -13 -45z m866
4 c0 -5 -5 -3 -10 5 -5 8 -10 20 -10 25 0 6 5 3 10 -5 5 -8 10 -19 10 -25z
m5304 14 l-19 -22 45 7 c25 4 56 9 70 11 14 3 7 -2 -15 -9 -22 -8 -60 -15 -85
-15 l-45 -1 30 25 c37 30 44 32 19 4z m-201 -26 c10 -10 38 -26 60 -35 28 -11
35 -17 21 -17 -18 -1 -114 54 -114 65 0 9 15 3 33 -13z m-2208 -33 c-101 -29
-1645 -64 -1850 -43 -58 6 24 9 295 11 370 2 995 16 1345 31 99 4 194 8 210 9
l30 0 -30 -8z m1215 -80 c40 -22 15 -19 -63 5 -43 14 -83 25 -89 25 -25 0
-168 43 -168 50 0 9 288 -63 320 -80z m1217 83 c-20 -2 -52 -2 -70 0 -17 2 0
4 38 4 39 0 53 -2 32 -4z m-39 -30 c-16 -2 -40 -2 -55 0 -16 2 -3 4 27 4 30 0
43 -2 28 -4z m-5240 -28 c6 11 12 15 12 10 0 -13 -20 -35 -32 -35 -4 0 -8 10
-7 23 0 20 1 21 8 2 8 -19 8 -19 19 0z m-60 -46 c-7 -5 -20 -8 -28 -8 -8 0 -5
4 8 9 12 5 23 17 23 27 1 16 2 16 6 -1 3 -10 -1 -22 -9 -27z m-113 -40 c-52
-24 -104 -34 -117 -21 -6 6 -2 8 14 5 13 -2 46 4 73 15 64 25 82 26 30 1z
m2070 -194 c-5 -2 -111 -5 -235 -7 -124 -2 -205 -1 -180 3 46 6 433 10 415 4z
m2142 -27 c-3 -7 -5 -2 -5 12 0 14 2 19 5 13 2 -7 2 -19 0 -25z m-4292 -77
l40 -9 -42 -1 c-23 0 -48 -4 -57 -7 -11 -4 -16 -1 -16 10 0 18 15 19 75 7z
m4503 -64 c14 -15 22 -32 19 -41 -15 -39 -116 -68 -169 -47 -46 17 -36 79 17
110 32 19 104 7 133 -22z m-214 -160 c4 -19 3 -26 -4 -22 -5 3 -10 18 -10 32
0 32 5 28 14 -10z"/>
<path d="M2362 6618 c-8 -24 -27 -76 -43 -116 -33 -83 -35 -94 -14 -66 17 23
78 200 73 214 -2 6 -9 -9 -16 -32z"/>
<path d="M2680 6440 c-8 -5 -10 -10 -5 -10 6 0 17 5 25 10 8 5 11 10 5 10 -5
0 -17 -5 -25 -10z"/>
<path d="M2338 6393 c7 -3 16 -2 19 1 4 3 -2 6 -13 5 -11 0 -14 -3 -6 -6z"/>
<path d="M2736 6346 c-10 -15 -12 -27 -6 -31 6 -3 10 -1 10 4 0 6 10 11 23 12
12 0 17 3 10 5 -7 3 -9 12 -6 20 9 23 -13 16 -31 -10z"/>
<path d="M2376 6351 c-4 -5 3 -7 14 -4 23 6 26 13 6 13 -8 0 -17 -4 -20 -9z"/>
<path d="M2356 6234 c-4 -12 -2 -15 9 -10 10 3 15 -1 15 -12 1 -16 1 -16 14 0
10 13 15 15 24 6 9 -9 12 -9 12 0 0 13 -31 32 -53 32 -8 0 -18 -7 -21 -16z"/>
<path d="M7218 5420 c-37 -11 -49 -20 -43 -30 3 -5 20 -3 38 4 18 8 43 19 57
24 l25 11 -25 -1 c-14 0 -37 -3 -52 -8z"/>
<path d="M7276 5360 c-25 -28 -36 -50 -36 -71 0 -38 15 -30 24 13 3 18 21 47
38 65 18 18 27 33 21 33 -6 0 -27 -18 -47 -40z"/>
<path d="M7134 5321 c21 -23 26 -26 26 -11 0 5 -10 15 -22 21 -23 12 -23 12
-4 -10z"/>
<path d="M7056 5264 c-9 -8 -16 -19 -16 -24 0 -14 30 -40 46 -40 7 0 19 9 26
19 6 11 19 17 27 14 9 -3 3 7 -12 21 -32 30 -49 32 -71 10z m42 -40 c-9 -9
-21 -13 -28 -9 -8 5 -6 11 6 19 11 8 14 18 9 27 -4 8 0 6 11 -3 17 -17 17 -19
2 -34z"/>
<path d="M7090 5067 c0 -9 12 -29 26 -44 l26 -28 -23 40 c-29 51 -29 51 -29
32z"/>
<path d="M7479 4982 c5 -34 6 -35 9 -8 2 16 0 32 -5 37 -5 5 -7 -7 -4 -29z"/>
<path d="M7300 4975 c-30 -37 29 -105 65 -75 19 16 19 40 -1 68 -18 25 -46 29
-64 7z m48 -7 c15 -15 16 -55 1 -64 -6 -3 -16 -1 -22 5 -8 8 -8 11 1 11 15 0
16 37 0 46 -6 4 -8 3 -4 -4 7 -11 -12 -28 -21 -18 -6 6 15 36 26 36 4 0 12 -5
19 -12z"/>
<path d="M7570 4718 c-12 -22 -12 -22 6 -6 10 10 15 20 12 24 -4 3 -12 -5 -18
-18z"/>
<path d="M1590 3112 c0 -13 43 -26 62 -19 7 3 2 6 -12 6 -15 1 -31 6 -38 13
-9 9 -12 9 -12 0z"/>
<path d="M1356 3075 c-3 -9 -5 -31 -5 -48 1 -27 3 -24 9 13 8 48 6 61 -4 35z"/>
<path d="M1695 2990 c27 -12 43 -12 25 0 -8 5 -22 9 -30 9 -10 0 -8 -3 5 -9z"/>
<path d="M1250 2960 c-13 -9 -13 -10 0 -10 8 0 22 5 30 10 13 9 13 10 0 10 -8
0 -22 -5 -30 -10z"/>
<path d="M1268 2903 c8 -3 5 -10 -10 -23 -19 -15 -21 -22 -12 -37 18 -30 60
-28 80 3 18 26 17 27 -5 45 -13 11 -33 19 -45 18 -11 0 -15 -3 -8 -6z m57 -23
c3 -5 -3 -10 -15 -10 -12 0 -24 -9 -28 -21 -7 -19 -9 -19 -22 -4 -15 18 -6 30
25 38 32 8 34 7 40 -3z"/>
<path d="M1622 2881 c-1 -16 3 -33 9 -37 8 -4 9 0 4 15 -4 13 -1 28 5 36 10
12 10 15 -2 15 -8 0 -15 -12 -16 -29z"/>
<path d="M1664 2892 c3 -6 0 -12 -6 -15 -10 -3 -10 -7 0 -19 10 -13 10 -17 0
-21 -8 -3 -8 -6 -2 -6 31 -2 44 57 15 67 -8 3 -11 0 -7 -6z"/>
<path d="M1416 2763 c20 -15 64 -17 64 -4 0 5 -18 11 -41 13 -35 3 -38 2 -23
-9z"/>
<path d="M1313 2732 l-23 -17 45 -18 c33 -14 52 -31 75 -68 23 -38 35 -49 56
-49 19 0 25 4 21 15 -4 8 -2 17 4 21 6 3 8 11 6 17 -2 7 -1 19 4 28 12 24 -32
41 -89 34 -52 -6 -89 12 -79 40 8 19 7 19 -20 -3z m174 -64 c-5 -17 -49 -17
-55 0 -2 8 7 12 28 12 21 0 30 -4 27 -12z m-14 -35 c-7 -2 -21 -2 -30 0 -10 3
-4 5 12 5 17 0 24 -2 18 -5z"/>
<path d="M1565 2675 c-39 -13 -39 -13 -9 -14 16 -1 39 6 50 14 23 18 12 18
-41 0z"/>
<path d="M1626 2546 c-3 -13 -18 -39 -33 -56 -24 -29 -30 -31 -67 -26 -29 4
-37 3 -26 -4 30 -20 67 -11 98 24 30 34 48 73 39 82 -2 3 -7 -6 -11 -20z"/>
<path d="M1492 2323 c-9 -20 -9 -30 -1 -37 9 -8 10 -7 5 2 -4 7 -2 19 4 27 7
8 10 19 8 24 -1 6 -9 -2 -16 -16z"/>
<path d="M7288 2053 c7 -3 16 -2 19 1 4 3 -2 6 -13 5 -11 0 -14 -3 -6 -6z"/>
<path d="M7316 1888 c-21 -32 -41 -57 -43 -54 -3 3 -14 -5 -24 -18 -10 -13
-42 -34 -71 -46 -29 -13 -47 -25 -39 -28 14 -5 97 33 106 49 4 5 10 7 13 5 8
-5 108 142 101 148 -2 2 -21 -23 -43 -56z"/>
<path d="M7255 1903 c-16 -16 -50 -41 -75 -57 -32 -22 -40 -31 -28 -34 22 -4
101 54 123 91 9 15 15 27 13 27 -2 0 -17 -12 -33 -27z"/>
<path d="M7373 1827 c-35 -39 -37 -53 -2 -20 18 18 31 35 28 38 -3 3 -15 -5
-26 -18z"/>
<path d="M1242 1750 c0 -14 2 -19 5 -12 2 6 2 18 0 25 -3 6 -5 1 -5 -13z"/>
<path d="M1232 1700 c0 -14 2 -19 5 -12 2 6 2 18 0 25 -3 6 -5 1 -5 -13z"/>
<path d="M1720 6545 c-8 -10 -10 -31 -5 -65 10 -71 30 -66 21 6 -8 71 13 71
31 0 7 -27 14 -51 18 -54 23 -23 4 82 -20 108 -22 24 -29 25 -45 5z"/>
<path d="M1610 6521 c-14 -4 -29 -16 -34 -28 -6 -12 -26 -26 -48 -32 -44 -13
-108 -66 -108 -88 0 -9 17 0 45 25 43 38 91 60 103 48 3 -3 -7 -15 -22 -27
-28 -22 -76 -91 -76 -109 0 -20 18 -9 29 19 11 26 81 103 81 89 0 -3 -7 -19
-15 -34 -17 -33 -20 -70 -5 -79 6 -3 10 5 10 19 0 14 5 36 11 50 11 24 12 24
45 9 27 -13 36 -14 49 -3 8 7 15 19 15 27 0 9 6 13 15 9 20 -7 19 2 -8 48 -27
48 -54 65 -87 57z m-1 -53 c-1 -40 -1 -41 -9 -15 -8 26 -4 57 6 57 2 0 4 -19
3 -42z m71 -32 c0 -25 -17 -46 -37 -46 -7 0 -13 8 -13 18 0 13 2 14 9 3 5 -7
14 -10 20 -7 16 10 14 52 -4 70 -8 8 -15 18 -15 23 1 19 40 -41 40 -61z"/>
<path d="M5350 6370 c-11 -8 -7 -9 15 -4 37 8 45 14 19 14 -10 0 -26 -5 -34
-10z"/>
<path d="M6349 6271 l26 -27 26 23 c29 26 49 30 49 8 0 -8 5 -15 11 -15 6 0 9
8 7 18 -3 14 -15 17 -74 18 l-71 2 26 -27z"/>
<path d="M5345 6258 c11 -35 22 -43 39 -28 14 11 13 15 -8 31 -32 25 -39 24
-31 -3z"/>
<path d="M5820 6243 c0 -4 16 -18 36 -31 20 -13 35 -19 32 -12 -4 14 -68 55
-68 43z"/>
<path d="M5760 6152 c0 -15 30 -23 48 -12 16 9 16 9 0 10 -9 0 -23 3 -32 6 -9
3 -16 2 -16 -4z"/>
<path d="M830 4686 c0 -2 8 -10 18 -17 15 -13 16 -12 3 4 -13 16 -21 21 -21
13z"/>
<path d="M901 4624 c20 -22 39 -46 42 -54 5 -13 6 -12 6 1 1 21 -34 66 -62 80
-15 8 -11 -1 14 -27z"/>
<path d="M750 4483 c0 -10 4 -14 8 -8 4 6 11 13 16 18 5 4 2 7 -7 7 -10 0 -17
-8 -17 -17z"/>
<path d="M913 4423 c-16 -6 -17 -35 -1 -51 9 -9 9 -12 -3 -12 -10 -1 -10 -3 3
-11 12 -7 24 -6 38 1 22 12 27 30 8 30 -9 0 -8 4 2 10 13 9 12 12 -4 25 -21
16 -24 16 -43 8z m33 -38 c-1 -30 -11 -32 -26 -6 -14 27 -13 31 9 31 14 0 19
-7 17 -25z"/>
<path d="M603 4308 c-19 -25 -24 -38 -14 -38 11 0 35 39 28 46 -2 3 -9 -1 -14
-8z"/>
<path d="M1050 4270 c0 -4 7 -10 15 -14 8 -3 13 -11 11 -18 -2 -7 -7 -29 -10
-48 -5 -33 -5 -34 9 -16 8 11 15 30 15 42 0 12 5 24 12 26 7 3 -2 12 -20 20
-18 9 -32 13 -32 8z"/>
<path d="M1000 4231 c0 -21 -2 -48 -5 -58 -3 -10 1 -4 9 12 18 35 20 71 6 80
-6 4 -10 -10 -10 -34z"/>
<path d="M7248 4203 c-9 -68 -41 -139 -81 -182 -18 -18 -25 -32 -17 -29 42 12
116 173 108 235 -2 19 -5 12 -10 -24z"/>
<path d="M731 4202 c-13 -24 -10 -90 5 -96 22 -9 51 6 63 30 15 34 14 48 -7
67 -24 22 -49 22 -61 -1z m57 -13 c11 -17 11 -20 -4 -17 -9 2 -19 -3 -21 -9
-3 -7 2 -13 11 -13 9 0 16 -5 16 -11 0 -6 -10 -9 -22 -7 -15 2 -24 11 -26 26
-7 50 22 70 46 31z"/>
<path d="M95 4140 c5 -94 38 -172 103 -239 52 -54 53 -54 13 -7 -59 71 -101
161 -111 242 l-9 69 4 -65z"/>
<path d="M1084 4128 c3 -14 8 -33 11 -40 5 -11 -1 -14 -25 -10 -16 2 -37 -1
-45 -8 -25 -21 -17 6 13 41 27 33 15 32 -24 -3 -20 -18 -21 -18 -39 2 -10 11
-22 20 -28 20 -5 0 5 -16 22 -36 18 -20 35 -49 38 -66 3 -17 9 -25 13 -18 5 7
14 8 33 1 47 -18 60 -5 54 55 -3 29 -11 61 -17 71 -10 15 -10 14 -6 -9z m14
-90 c4 -21 -14 -23 -55 -7 -22 8 -24 12 -13 20 23 14 64 6 68 -13z"/>
<path d="M7020 4074 c0 -13 55 -99 70 -109 6 -4 17 -2 23 4 8 8 7 11 -4 11
-18 0 -50 33 -72 75 -9 17 -16 25 -17 19z"/>
<path d="M1000 3934 c-13 -32 -13 -51 -1 -38 10 11 24 64 16 64 -3 0 -10 -12
-15 -26z"/>
<path d="M540 3901 c-19 -37 10 -67 38 -39 19 19 14 30 -9 18 -28 -16 -36 -4
-14 20 10 11 13 20 7 20 -6 0 -16 -9 -22 -19z"/>
<path d="M6505 3913 c-45 -6 -133 -32 -139 -41 -3 -5 28 1 67 11 53 15 107 20
205 21 73 1 123 4 110 8 -25 7 -194 8 -243 1z"/>
<path d="M6809 3885 c18 -8 36 -15 40 -15 13 1 -45 29 -59 29 -8 0 0 -6 19
-14z"/>
<path d="M6917 3831 c49 -36 112 -108 119 -138 4 -13 10 -23 15 -23 5 0 9 -7
9 -15 0 -11 12 -15 46 -15 41 0 115 -28 179 -69 6 -3 -1 4 -15 16 -40 36 -106
63 -155 63 -25 0 -45 2 -45 4 0 1 5 17 11 34 11 31 -2 105 -21 117 -5 3 -2
-14 5 -37 10 -29 12 -53 7 -73 l-9 -30 -11 36 c-12 35 -70 98 -129 137 -46 33
-52 27 -6 -7z"/>
<path d="M6210 3746 c-16 -44 -11 -107 15 -170 l24 -59 -22 -38 c-15 -27 -27
-37 -38 -34 -21 7 -75 -37 -82 -67 -5 -16 2 -12 24 15 17 20 39 37 50 37 23 0
23 1 4 -43 -32 -77 -13 -58 23 22 20 46 42 86 48 88 6 2 25 -17 43 -42 28 -40
31 -48 19 -63 -12 -15 -11 -16 4 -3 16 12 22 9 54 -19 50 -43 126 -79 132 -62
20 61 125 143 199 158 18 3 30 10 27 15 -8 13 -60 11 -97 -5 -35 -14 -127
-110 -127 -131 0 -7 -6 -18 -13 -24 -10 -8 -24 -4 -58 18 -24 15 -53 38 -63
50 -19 21 -19 21 4 46 13 14 19 25 13 25 -6 0 -16 -7 -23 -15 -7 -8 -18 -15
-25 -15 -21 0 -70 69 -104 147 -33 75 -38 114 -21 159 6 15 8 29 6 32 -3 3
-10 -7 -16 -22z"/>
<path d="M7125 3607 c57 -28 83 -54 113 -112 12 -22 21 -34 22 -26 0 24 -58
105 -92 128 -18 12 -46 25 -63 28 -22 5 -16 0 20 -18z"/>
<path d="M275 3559 c5 -34 4 -37 -25 -43 -20 -3 -42 0 -60 9 -41 21 -51 18
-15 -5 25 -15 41 -18 88 -13 45 5 54 8 42 17 -9 6 -20 25 -25 41 -10 29 -10
29 -5 -6z"/>
<path d="M52 3538 c-7 -7 -12 -16 -12 -22 0 -5 6 -2 13 7 6 9 28 18 47 20 l35
4 -35 1 c-20 1 -41 -3 -48 -10z"/>
<path d="M6453 3490 c-35 -14 -27 -20 10 -8 17 6 34 13 36 14 8 7 -24 3 -46
-6z"/>
<path d="M180 3450 c0 -11 -3 -20 -7 -20 -5 0 -34 -4 -67 -10 -80 -13 -106
-31 -106 -75 0 -44 32 -67 105 -73 l53 -4 -31 -44 c-27 -38 -29 -47 -19 -69 6
-14 19 -25 28 -25 13 0 11 4 -6 18 -22 18 -22 19 -6 50 9 17 25 40 36 50 17
16 21 35 25 120 3 56 3 102 0 102 -3 0 -5 -9 -5 -20z m-16 -62 c-3 -13 -11
-28 -15 -34 -6 -8 -4 -14 6 -18 10 -3 15 -15 13 -28 -3 -21 -8 -23 -60 -22
-71 2 -90 15 -86 63 4 44 32 61 101 61 46 0 48 -1 41 -22z"/>
<path d="M2195 3452 c-41 -20 -103 -78 -93 -87 3 -3 13 6 22 21 10 14 41 36
69 50 85 39 173 28 258 -33 22 -15 50 -35 62 -43 l22 -14 -19 22 c-11 13 -47
39 -79 59 -51 31 -71 37 -131 40 -55 3 -80 0 -111 -15z"/>
<path d="M7261 3434 c0 -11 3 -14 6 -6 3 7 2 16 -1 19 -3 4 -6 -2 -5 -13z"/>
<path d="M6840 3416 c0 -8 5 -27 12 -43 6 -15 14 -64 18 -108 l7 -80 1 80 c2
80 -10 149 -28 160 -6 4 -10 -1 -10 -9z"/>
<path d="M7277 3335 c3 -44 7 -82 9 -84 7 -8 3 84 -6 124 -6 29 -7 19 -3 -40z"/>
<path d="M6340 3320 c-13 -8 -13 -10 2 -10 9 0 20 5 23 10 8 13 -5 13 -25 0z"/>
<path d="M6930 3321 c0 -6 7 -28 15 -48 8 -21 19 -84 24 -141 4 -57 13 -108
19 -114 9 -9 9 -3 2 23 -6 18 -10 68 -10 110 0 72 -21 162 -41 175 -5 3 -9 1
-9 -5z"/>
<path d="M6320 3275 c-10 -12 -10 -18 0 -30 16 -19 39 -19 46 0 6 15 -11 45
-26 45 -4 0 -13 -7 -20 -15z m38 -16 c-2 -6 -8 -10 -13 -10 -5 0 -11 4 -13 10
-2 6 4 11 13 11 9 0 15 -5 13 -11z"/>
<path d="M7262 3149 c-9 -56 -19 -82 -36 -98 -25 -24 -131 -61 -172 -61 -33 0
-30 -12 9 -40 30 -22 31 -22 13 -2 -19 22 -19 22 6 22 46 0 124 30 151 58 28
29 51 117 45 170 -2 16 -8 -4 -16 -49z"/>
<path d="M198 3174 c-21 -19 -34 -34 -29 -34 4 0 20 12 34 26 23 23 32 25 69
20 45 -7 36 6 -12 17 -19 5 -34 -2 -62 -29z"/>
<path d="M458 3193 c12 -2 30 -2 40 0 9 3 -1 5 -23 4 -22 0 -30 -2 -17 -4z"/>
<path d="M580 3190 c0 -5 -8 -10 -17 -10 -15 0 -15 -1 1 -13 15 -11 16 -17 7
-35 -14 -26 -14 -29 2 -35 8 -3 13 11 15 49 2 30 0 54 -3 54 -3 0 -5 -4 -5
-10z"/>
<path d="M6685 3160 c10 -11 20 -20 22 -20 2 0 -1 9 -7 20 -6 11 -16 20 -22
20 -6 0 -3 -9 7 -20z"/>
<path d="M6341 3141 c-1 -14 7 -33 16 -43 14 -16 15 -24 6 -49 -14 -36 2 -28
22 11 14 27 13 29 -5 35 -11 3 -24 21 -29 38 -8 28 -9 29 -10 8z"/>
<path d="M6255 3100 c-18 -12 -24 -20 -14 -20 8 0 20 5 27 12 9 9 14 6 21 -13
9 -23 10 -23 10 9 1 37 -4 39 -44 12z"/>
<path d="M6573 3095 c-6 -18 23 -55 44 -55 8 0 3 10 -14 26 -22 21 -25 27 -13
34 11 7 11 10 2 10 -7 0 -15 -7 -19 -15z"/>
<path d="M6610 3106 c0 -2 12 -11 26 -21 25 -16 25 -16 14 4 -9 17 -40 30 -40
17z"/>
<path d="M6305 3012 c0 -20 -4 -51 -8 -69 -7 -28 -5 -34 18 -49 25 -16 31 -16
127 1 l100 19 -59 16 c-70 19 -124 50 -155 90 l-23 29 0 -37z m65 -70 c-19 -2
-40 -8 -47 -14 -10 -8 -13 -6 -13 5 0 9 4 18 9 21 4 3 6 17 3 32 l-5 26 45
-34 44 -33 -36 -3z m49 -21 c10 -7 1 -11 -33 -16 -53 -8 -71 0 -35 14 31 12
50 13 68 2z"/>
<path d="M6641 3004 c-17 -14 -31 -32 -31 -40 0 -10 8 -6 23 11 12 14 40 32
62 40 l40 14 -32 1 c-20 0 -43 -10 -62 -26z"/>
<path d="M955 2935 c-15 -19 -25 -39 -23 -44 1 -5 15 11 30 35 33 53 29 57 -7
9z"/>
<path d="M6590 2921 c-14 -14 -14 -20 1 -51 24 -50 58 -78 104 -84 l40 -6 -49
18 c-54 20 -75 49 -74 100 1 39 -3 43 -22 23z"/>
<path d="M6280 2892 c0 -13 27 -35 39 -30 5 1 -2 11 -15 21 -13 10 -24 14 -24
9z"/>
<path d="M6985 2881 c7 -23 -19 -35 -46 -21 -13 7 -19 7 -19 1 0 -20 49 -24
76 -6 20 13 23 19 13 31 -17 20 -31 17 -24 -5z"/>
<path d="M7118 2753 c7 -3 16 -2 19 1 4 3 -2 6 -13 5 -11 0 -14 -3 -6 -6z"/>
<path d="M7286 2659 c21 -26 50 -75 64 -109 13 -35 26 -57 28 -51 7 21 -56
135 -94 171 l-38 35 40 -46z"/>
<path d="M6410 1723 c0 -12 18 -37 40 -57 37 -33 40 -40 40 -87 0 -31 4 -48
10 -44 6 3 10 24 10 46 0 37 1 39 25 33 38 -10 30 13 -10 26 -19 6 -53 32 -75
57 -32 36 -40 42 -40 26z"/>
<path d="M6682 1729 c2 -7 10 -15 17 -17 8 -3 12 1 9 9 -2 7 -10 15 -17 17 -8
3 -12 -1 -9 -9z"/>
<path d="M6890 1651 c0 -5 7 -14 15 -21 16 -14 18 -10 9 14 -6 17 -24 22 -24
7z"/>
<path d="M6932 1599 c2 -7 10 -15 17 -17 8 -3 12 1 9 9 -2 7 -10 15 -17 17 -8
3 -12 -1 -9 -9z"/>
<path d="M6975 1590 c3 -5 26 -21 51 -36 24 -14 44 -32 44 -40 0 -24 -28 -71
-45 -78 -9 -3 -13 -11 -10 -17 8 -13 65 38 65 58 0 7 5 13 10 13 23 0 -1 -64
-37 -102 -28 -29 -25 -51 2 -28 34 28 65 95 57 123 -4 14 -11 27 -17 27 -5 1
-9 7 -9 15 1 7 -16 21 -37 31 -22 9 -44 23 -50 31 -13 15 -33 18 -24 3z"/>
<path d="M970 1571 c14 -11 30 -21 35 -21 11 0 -7 14 -40 31 -13 7 -12 3 5
-10z"/>
<path d="M6970 1550 c0 -5 9 -10 20 -10 11 0 20 5 20 10 0 6 -9 10 -20 10 -11
0 -20 -4 -20 -10z"/>
<path d="M7111 1547 c2 -1 15 -11 29 -22 l25 -20 -19 23 c-11 12 -24 22 -29
22 -6 0 -8 -1 -6 -3z"/>
<path d="M7020 1520 c0 -13 28 -25 38 -16 3 4 0 11 -8 16 -20 13 -30 12 -30 0z"/>
<path d="M1178 1473 c7 -3 16 -2 19 1 4 3 -2 6 -13 5 -11 0 -14 -3 -6 -6z"/>
<path d="M1271 1438 c8 -14 9 -45 5 -92 -4 -39 -8 -77 -8 -84 -1 -7 -12 -15
-26 -19 -36 -9 -50 -54 -45 -148 5 -93 17 -117 74 -145 32 -15 46 -17 61 -9
26 14 35 3 15 -18 -47 -53 -23 -119 41 -107 26 5 41 1 65 -17 20 -14 27 -16
18 -6 -20 26 -11 28 44 11 51 -16 137 -14 185 4 15 5 -7 7 -61 4 -69 -3 -95 0
-144 18 -33 12 -79 27 -102 34 -53 15 -57 19 -43 46 9 17 14 19 26 9 25 -20
27 -2 3 25 -17 19 -26 23 -35 15 -18 -15 -63 -3 -98 24 -28 23 -28 25 -28 123
0 130 -1 124 21 124 15 0 20 -12 28 -60 7 -41 6 -61 -1 -64 -7 -2 -5 -9 5 -17
9 -8 28 -35 43 -61 15 -27 29 -48 31 -48 3 0 -7 21 -21 48 l-25 47 53 6 c54 6
173 59 151 66 -7 3 -13 16 -13 29 0 14 -4 23 -9 19 -11 -6 -29 49 -38 118 -6
47 -5 48 37 85 24 20 53 40 64 44 15 4 11 6 -16 7 -28 1 -36 -2 -32 -13 3 -7
-7 -23 -23 -35 -26 -21 -28 -21 -34 -4 -5 10 -8 -8 -8 -43 -1 -39 8 -88 23
-135 13 -41 22 -78 19 -83 -11 -18 -90 -46 -130 -46 -40 0 -43 2 -52 38 -6 20
-8 102 -6 185 4 127 3 147 -10 147 -13 0 -14 -4 -4 -22z m123 -610 c-30 -8
-64 6 -64 26 0 11 9 10 45 -3 43 -15 44 -16 19 -23z"/>
<path d="M1328 1443 c12 -2 32 -2 45 0 12 2 2 4 -23 4 -25 0 -35 -2 -22 -4z"/>
<path d="M1410 1440 c0 -5 7 -10 16 -10 8 0 12 5 9 10 -3 6 -10 10 -16 10 -5
0 -9 -4 -9 -10z"/>
<path d="M6511 1414 c0 -11 3 -14 6 -6 3 7 2 16 -1 19 -3 4 -6 -2 -5 -13z"/>
<path d="M6521 1374 c0 -11 3 -14 6 -6 3 7 2 16 -1 19 -3 4 -6 -2 -5 -13z"/>
<path d="M7123 1335 c-38 -58 -65 -69 -181 -76 -95 -6 -111 -10 -179 -45 -41
-22 -84 -52 -95 -67 -17 -24 -22 -26 -36 -15 -15 12 -15 11 -4 -4 10 -12 11
-22 3 -37 -16 -29 -13 -38 5 -15 14 18 15 18 7 -6 -4 -14 -8 -50 -8 -82 0 -46
-2 -54 -14 -45 -9 8 -12 26 -8 62 l5 50 -13 -35 c-17 -45 -18 -86 -2 -87 6 -1
39 -13 72 -27 46 -19 77 -26 133 -26 117 0 181 39 234 144 17 33 50 86 73 116
72 94 78 117 48 173 -9 18 -16 38 -15 45 4 19 -1 14 -25 -23z m-279 -175 c66
-25 89 -95 41 -126 -38 -25 -133 -29 -175 -7 -43 22 -48 50 -19 87 37 48 100
67 153 46z m-172 -42 c-7 -7 -12 -8 -12 -2 0 14 12 26 19 19 2 -3 -1 -11 -7
-17z"/>
<path d="M6540 1312 c0 -17 67 -162 75 -162 3 0 -2 15 -11 33 -10 17 -28 57
-40 87 -13 30 -23 49 -24 42z"/>
<path d="M1549 1283 c-13 -16 -12 -17 4 -4 9 7 17 15 17 17 0 8 -8 3 -21 -13z"/>
<path d="M1524 1070 c28 -43 30 -52 11 -63 -10 -5 -35 -25 -54 -44 -36 -35
-36 -35 24 6 34 23 66 41 73 41 7 0 12 5 12 10 0 6 -6 10 -14 10 -8 0 -27 15
-42 33 -15 17 -19 21 -10 7z"/>
<path d="M1618 1013 c7 -3 16 -2 19 1 4 3 -2 6 -13 5 -11 0 -14 -3 -6 -6z"/>
<path d="M1180 999 c0 -8 12 -26 27 -40 19 -16 23 -18 12 -4 -9 11 -21 29 -27
40 -9 15 -11 16 -12 4z"/>
<path d="M1677 990 c49 -30 80 -101 63 -146 -7 -17 -7 -23 1 -19 5 4 14 18 19
31 18 47 -50 154 -99 154 -9 0 -3 -8 16 -20z"/>
<path d="M7041 969 c-6 -18 -23 -48 -38 -68 -21 -28 -22 -32 -5 -17 23 20 67
104 59 112 -2 3 -10 -9 -16 -27z"/>
<path d="M5971 962 c-2 -39 96 -84 177 -81 15 0 -5 7 -44 14 -77 14 -108 29
-123 60 -5 11 -10 14 -10 7z"/>
<path d="M6328 954 c-38 -20 -36 -28 2 -9 17 9 30 18 30 20 0 7 -1 6 -32 -11z"/>
<path d="M6270 920 c-9 -6 -10 -10 -3 -10 6 0 15 5 18 10 8 12 4 12 -15 0z"/>
<path d="M1780 837 c0 -27 -14 -47 -50 -71 -13 -9 -19 -16 -11 -16 23 0 71 57
71 84 0 14 -2 26 -5 26 -3 0 -5 -10 -5 -23z"/>
<path d="M6868 833 c6 -2 18 -2 25 0 6 3 1 5 -13 5 -14 0 -19 -2 -12 -5z"/>
<path d="M1630 740 l-55 -7 50 -1 c28 -1 57 3 65 8 8 5 11 9 5 8 -5 -1 -35 -4
-65 -8z"/>
</g>
</svg>
